<?xml version="1.0" encoding="utf-8"?>
<!-- Generator: Adobe Illustrator 16.0.0, SVG Export Plug-In . SVG Version: 6.00 Build 0)  -->
<!DOCTYPE svg PUBLIC "-//W3C//DTD SVG 1.1//EN" "http://www.w3.org/Graphics/SVG/1.1/DTD/svg11.dtd">
<svg version="1.1" id="Layer_1" xmlns="http://www.w3.org/2000/svg" xmlns:xlink="http://www.w3.org/1999/xlink" x="0px" y="0px"
	 width="301.68px" height="340px" viewBox="0 0 301.68 340" enable-background="new 0 0 301.68 340" xml:space="preserve">
<path d="M238.201,215.979l-14.116,12.963C209.295,242.521,190.088,250,170.001,250C125.889,250,90,214.112,90,170
	s35.889-80,80.001-80c19.8,0,38.802,7.292,53.506,20.531l14.104,12.701l63.447-63.448l-15.146-14.125
	C254.342,16.215,213.177,0,170.001,0C76.262,0,0,76.262,0,170s76.262,170,170.001,170c43.588,0,85.04-16.482,116.721-46.412
	l14.958-14.131L238.201,215.979z M170.001,320C87.157,320,20,252.843,20,170S87.157,20,170.001,20
	c39.527,0,75.478,15.297,102.271,40.285L236.89,95.668C219.171,79.713,195.722,70,170.001,70C114.771,70,70,114.771,70,170
	c0,55.228,44.771,100,100.001,100c26.071,0,49.81-9.981,67.61-26.326l35.376,35.376C246.119,304.433,209.88,320,170.001,320z"/>
<g>
	<g>
		<path d="M274.021,255.674l-12.817,12.818l0.348,0.348c-24.353,23.006-57.199,37.115-93.344,37.115
			c-75.087,0-135.956-60.869-135.956-135.954c0-75.086,60.869-135.955,135.956-135.955c35.827,0,68.409,13.865,92.696,36.512
			l12.817,12.817l13.272-13.272l-13.727-12.802c-28.616-26.686-65.927-41.384-105.06-41.384
			c-84.962,0-154.083,69.121-154.083,154.083c0,84.96,69.121,154.081,154.083,154.081c39.506,0,77.077-14.939,105.791-42.066
			l13.558-12.807L274.021,255.674z"/>
	</g>
</g>
</svg>
